<svg xmlns="http://www.w3.org/2000/svg" viewBox="0 0 64 64" role="img" aria-labelledby="title desc">
  <title id="title">Markdown Viewer Icon</title>
  <desc id="desc">Stylized M and D letters on a rounded square background representing a markdown viewer.</desc>
  <defs>
    <linearGradient id="bg" x1="0%" y1="0%" x2="100%" y2="100%">
      <stop offset="0%" stop-color="#4f46e5" />
      <stop offset="50%" stop-color="#3b82f6" />
      <stop offset="100%" stop-color="#0ea5e9" />
    </linearGradient>
    <linearGradient id="accent" x1="0%" y1="0%" x2="0%" y2="100%">
      <stop offset="0%" stop-color="#ffffff" stop-opacity="0.95" />
      <stop offset="100%" stop-color="#e0f2fe" stop-opacity="0.9" />
    </linearGradient>
  </defs>
  <rect x="4" y="4" width="56" height="56" rx="14" fill="url(#bg)" />
  <path d="M18 20h28a4 4 0 0 1 4 4v16a4 4 0 0 1-4 4H18a4 4 0 0 1-4-4V24a4 4 0 0 1 4-4z" fill="rgba(15, 23, 42, 0.15)" />
  <path d="M20 44h24a2 2 0 0 0 2-2v-4H18v4a2 2 0 0 0 2 2z" fill="rgba(15, 23, 42, 0.25)" />
  <path d="M20 24v12l4.5-5.5L29 36l4.5-5.5L38 36l6-8v-4h-4l-4 5.5L32 24l-5.5 7.5L22 24h-2z" fill="url(#accent)" />
  <circle cx="44" cy="30" r="4" fill="#f8fafc" />
  <path d="M44 27.5c.83 0 1.5.67 1.5 1.5S44.83 30.5 44 30.5s-1.5-.67-1.5-1.5.67-1.5 1.5-1.5z" fill="#38bdf8" />
  <rect x="20" y="48" width="24" height="2" rx="1" fill="rgba(255,255,255,0.7)" />
</svg>
